<?xml version="1.0" standalone="no"?>
<!DOCTYPE svg PUBLIC "-//W3C//DTD SVG 1.1//EN" "http://www.w3.org/Graphics/SVG/1.1/DTD/svg11.dtd"><svg t="1630652684169"
    class="icon" color="pink" viewBox="0 0 1024 1024" version="1.1" xmlns="http://www.w3.org/2000/svg" p-id="2163" width="16"
    height="16" xmlns:xlink="http://www.w3.org/1999/xlink">
    <defs>
        <style type="text/css"></style>
    </defs>
    <path
        d="M863.979361 506.637904V32.026659a31.99914 31.99914 0 1 1 63.99828 0v954.854339a31.99914 31.99914 0 1 1-63.99828 0V536.141111a43.90282 43.90282 0 0 1-17.023543 21.759415L164.158168 1011.584334A43.90282 43.90282 0 0 1 96 974.977317V43.930339A43.90282 43.90282 0 0 1 165.054144 7.963306l36.09503 25.279321 646.638622 452.147848c7.551797 5.311857 13.183646 12.799656 16.191565 21.247429zM166.398108 924.802666l607.98366-403.957144-607.98366-425.204572v829.161716z"
        p-id="2164"></path>
</svg>